<?xml version="1.0" encoding="UTF-8"?>
<svg width="280px" height="280px" viewBox="0 0 280 280" version="1.1" xmlns="http://www.w3.org/2000/svg" xmlns:xlink="http://www.w3.org/1999/xlink">
    <!-- Generator: Sketch 44.1 (41455) - http://www.bohemiancoding.com/sketch -->
    <title>Sidebar Icon</title>
    <desc>Created with Sketch.</desc>
    <defs></defs>
    <g id="Page-1" stroke="none" stroke-width="1" fill="none" fill-rule="evenodd">
        <g id="Sidebar-Icon" fill="#FFFFFF">
            <path d="M151.666667,233.384689 L256.666667,233.384689 L256.666667,186.854758 L151.666667,186.854758 L151.666667,233.384689 Z M23.3333333,233.384689 L128.333333,233.384689 L128.333333,186.854758 L23.3333333,186.854758 L23.3333333,233.384689 Z M23.3333333,93.7948962 L128.333333,93.7948962 L128.333333,47.2649654 L23.3333333,47.2649654 L23.3333333,93.7948962 Z M151.666667,93.7948962 L256.666667,93.7948962 L256.666667,47.2649654 L151.666667,47.2649654 L151.666667,93.7948962 Z M23.3333333,163.589792 L128.333333,163.589792 L128.333333,117.059862 L23.3333333,117.059862 L23.3333333,163.589792 Z M151.666667,163.589792 L256.666667,163.589792 L256.666667,117.059862 L151.666667,117.059862 L151.666667,163.589792 Z M268.333333,24 L140.186667,24 L139.813333,24 L11.6666667,24 C5.22666667,24 0,29.2113523 0,35.6324827 L0,105.427379 L0,175.222275 L0,245.017171 C0,251.438302 5.22666667,256.649654 11.6666667,256.649654 L138.226667,256.649654 C138.786667,256.742714 139.253333,256.998629 139.836667,256.998629 C140.49,257.021894 141.05,256.742714 141.68,256.649654 L268.333333,256.649654 C274.773333,256.649654 280,251.438302 280,245.017171 L280,175.222275 L280,105.427379 L280,35.6324827 C280,29.2113523 274.773333,24 268.333333,24 L268.333333,24 Z" id="Fill-5"></path>
        </g>
    </g>
</svg>