<?xml version="1.0" encoding="UTF-8"?>
<svg width="280px" height="280px" viewBox="0 0 280 280" version="1.1" xmlns="http://www.w3.org/2000/svg" xmlns:xlink="http://www.w3.org/1999/xlink">
    <!-- Generator: Sketch 44.1 (41455) - http://www.bohemiancoding.com/sketch -->
    <title>Plugin Icon</title>
    <desc>Created with Sketch.</desc>
    <defs></defs>
    <g id="Page-1" stroke="none" stroke-width="1" fill="none" fill-rule="evenodd">
        <g id="Plugin-Icon">
            <circle id="Oval" fill="#7349BD" cx="140" cy="140" r="140"></circle>
            <path d="M146.25,190.330842 L202.5,190.330842 L202.5,165.368432 L146.25,165.368432 L146.25,190.330842 Z M77.5,190.330842 L133.75,190.330842 L133.75,165.368432 L77.5,165.368432 L77.5,190.330842 Z M77.5,115.443614 L133.75,115.443614 L133.75,90.4812046 L77.5,90.4812046 L77.5,115.443614 Z M146.25,115.443614 L202.5,115.443614 L202.5,90.4812046 L146.25,90.4812046 L146.25,115.443614 Z M77.5,152.887228 L133.75,152.887228 L133.75,127.924818 L77.5,127.924818 L77.5,152.887228 Z M146.25,152.887228 L202.5,152.887228 L202.5,127.924818 L146.25,127.924818 L146.25,152.887228 Z M208.75,78 L140.1,78 L139.9,78 L71.25,78 C67.8,78 65,80.7957898 65,84.2406023 L65,121.684216 L65,159.12783 L65,196.571444 C65,200.016256 67.8,202.812046 71.25,202.812046 L139.05,202.812046 C139.35,202.861971 139.6,202.999264 139.9125,202.999264 C140.2625,203.011745 140.5625,202.861971 140.9,202.812046 L208.75,202.812046 C212.2,202.812046 215,200.016256 215,196.571444 L215,159.12783 L215,121.684216 L215,84.2406023 C215,80.7957898 212.2,78 208.75,78 L208.75,78 Z" id="Fill-5" fill="#F9F9F9"></path>
        </g>
    </g>
</svg>